<?xml version="1.0" standalone="no"?>
<!DOCTYPE svg PUBLIC "-//W3C//DTD SVG 20010904//EN"
 "http://www.w3.org/TR/2001/REC-SVG-20010904/DTD/svg10.dtd">
<svg version="1.0" xmlns="http://www.w3.org/2000/svg"
 width="512.000000pt" height="512.000000pt" viewBox="0 0 512.000000 512.000000"
 preserveAspectRatio="xMidYMid meet">

<g transform="translate(0.000000,512.000000) scale(0.100000,-0.100000)"
fill="#000000" stroke="none">
<path d="M2365 5113 c-486 -40 -961 -221 -1352 -514 -124 -93 -323 -286 -430
-416 -423 -514 -632 -1186 -573 -1843 47 -517 248 -1009 573 -1403 570 -689
1440 -1031 2322 -913 427 57 846 230 1200 495 125 94 342 305 448 436 616 763
740 1824 316 2705 -134 278 -274 477 -492 698 -255 259 -543 449 -887 585
-209 83 -438 138 -675 162 -126 13 -344 17 -450 8z m403 -484 c251 -27 476
-90 692 -195 115 -56 296 -167 378 -232 l23 -18 -60 -219 c-33 -121 -59 -220
-58 -221 1 -1 101 25 222 57 l219 60 18 -23 c61 -76 169 -251 224 -363 510
-1035 76 -2284 -968 -2790 -563 -273 -1233 -273 -1796 0 -429 208 -757 533
-968 960 -243 492 -280 1064 -103 1584 237 694 834 1223 1543 1366 218 44 437
56 634 34z m1339 -685 c-6 -6 -209 -56 -212 -52 -3 3 35 153 51 197 3 10 30
-10 84 -64 44 -43 78 -80 77 -81z"/>
<path d="M2512 4444 c-21 -14 -22 -22 -22 -143 0 -145 7 -161 72 -161 60 0 68
19 68 163 0 119 -1 127 -22 141 -12 9 -34 16 -48 16 -14 0 -36 -7 -48 -16z"/>
<path d="M3428 4208 c-9 -7 -42 -58 -73 -114 -50 -90 -55 -104 -44 -126 17
-39 83 -62 115 -40 6 4 36 53 68 109 63 112 65 128 16 163 -32 23 -59 25 -82
8z"/>
<path d="M1598 4194 c-50 -26 -46 -53 20 -166 67 -115 92 -134 140 -107 15 8
33 26 41 40 14 25 12 31 -38 120 -29 52 -60 102 -69 112 -18 21 -57 21 -94 1z"/>
<path d="M2430 3994 c-269 -32 -489 -113 -700 -258 -41 -28 -125 -100 -185
-161 -208 -207 -332 -436 -397 -732 -31 -141 -31 -425 0 -566 65 -295 189
-525 397 -732 212 -212 461 -344 755 -401 131 -25 389 -25 520 0 391 75 728
300 947 634 101 153 173 335 209 527 26 137 26 373 0 510 -109 586 -556 1041
-1136 1156 -91 18 -336 32 -410 23z m293 -489 c372 -65 666 -337 769 -714 31
-110 31 -352 0 -462 -103 -377 -397 -649 -769 -714 -492 -86 -959 219 -1095
714 -17 62 -21 105 -21 231 0 126 4 169 21 231 135 495 603 800 1095 714z"/>
<path d="M2178 3099 c-17 -9 -18 -45 -18 -534 0 -566 -1 -555 52 -555 29 0
897 499 914 525 27 41 9 59 -169 161 -95 54 -295 169 -446 256 -150 87 -283
158 -295 158 -11 0 -29 -5 -38 -11z"/>
<path d="M933 3528 c-27 -30 -36 -63 -24 -86 6 -11 56 -45 111 -77 110 -62
136 -65 166 -21 8 14 14 39 12 58 -3 30 -11 38 -103 90 -55 32 -109 58 -121
58 -11 0 -30 -10 -41 -22z"/>
<path d="M4025 3495 c-106 -64 -120 -80 -105 -121 16 -40 39 -64 63 -64 29 0
215 107 227 131 21 39 -24 109 -68 108 -15 0 -67 -25 -117 -54z"/>
<path d="M676 2608 c-9 -12 -16 -34 -16 -48 0 -14 7 -36 16 -48 14 -21 22 -22
144 -22 122 0 130 1 144 22 9 12 16 34 16 48 0 14 -7 36 -16 48 -14 21 -22 22
-144 22 -122 0 -130 -1 -144 -22z"/>
<path d="M4156 2608 c-9 -12 -16 -34 -16 -48 0 -14 7 -36 16 -48 14 -21 22
-22 144 -22 122 0 130 1 144 22 9 12 16 34 16 48 0 14 -7 36 -16 48 -14 21
-22 22 -144 22 -122 0 -130 -1 -144 -22z"/>
<path d="M1015 1755 c-96 -58 -120 -82 -110 -114 11 -35 46 -71 69 -71 30 0
213 107 227 132 20 38 -25 108 -69 107 -15 0 -67 -25 -117 -54z"/>
<path d="M3941 1789 c-25 -27 -34 -64 -22 -88 12 -22 201 -131 228 -131 41 0
83 73 64 109 -14 25 -196 131 -226 131 -13 0 -33 -9 -44 -21z"/>
<path d="M1698 1199 c-23 -13 -128 -200 -128 -227 0 -43 71 -83 110 -62 10 5
44 53 75 106 65 110 68 136 16 171 -38 25 -48 27 -73 12z"/>
<path d="M3350 1188 c-56 -39 -55 -52 13 -170 43 -77 67 -108 84 -113 39 -9
103 33 103 68 0 28 -107 215 -130 227 -26 14 -33 13 -70 -12z"/>
<path d="M2507 962 c-14 -15 -17 -41 -17 -145 0 -119 1 -127 22 -141 29 -20
67 -20 96 0 21 14 22 22 22 143 0 111 -2 130 -18 144 -25 23 -85 22 -105 -1z"/>
</g>
</svg>
